<?xml version="1.0" encoding="UTF-8"?>
<svg version="1.1" xmlns="http://www.w3.org/2000/svg" width="500" height="500">
<path d="M0 0 C6.68009914 5.14531177 11.27196534 13.29647498 12.82421875 21.59765625 C13.83732412 30.91490402 11.41482961 39.19147045 6.13671875 46.91015625 C0.94270469 53.2816546 -5.95992498 57.67355291 -14.17578125 58.59765625 C-24.84460705 59.54468101 -32.86548046 57.24153469 -41.60546875 51.13671875 C-43.17578125 49.59765625 -43.17578125 49.59765625 -44.51379395 46.54602051 C-47.57635807 43.15398532 -48.14153964 43.13370213 -52.4954834 42.8626709 C-54.77617615 42.83912447 -57.05735486 42.84912175 -59.33789062 42.88476562 C-60.58406662 42.88067688 -61.83024261 42.87658813 -63.11418152 42.87237549 C-66.53542274 42.86738468 -69.95449537 42.88920342 -73.37543678 42.92342949 C-76.97352693 42.95359701 -80.57160436 42.95115656 -84.1697998 42.95275879 C-90.22945493 42.96014999 -96.28865798 42.99007527 -102.34814453 43.03515625 C-110.06534412 43.09246248 -117.78217577 43.11356685 -125.49956512 43.12252045 C-132.18753464 43.13056929 -138.87542785 43.15558906 -145.56334114 43.18321419 C-147.68315071 43.19131499 -149.80295776 43.19721581 -151.92277527 43.20280457 C-180.85958732 42.68765822 -180.85958732 42.68765822 -208.92578125 48.66015625 C-209.78792236 48.96252197 -210.65006348 49.2648877 -211.53833008 49.57641602 C-223.98393158 54.1306388 -235.33806727 60.6832772 -245.17578125 69.59765625 C-245.99304688 70.33371094 -246.8103125 71.06976563 -247.65234375 71.828125 C-264.46058568 87.77774157 -277.00034428 110.95448967 -278.33691406 134.42749023 C-278.6499901 153.71396171 -278.6499901 153.71396171 -275.17578125 172.59765625 C-274.92054688 173.57734375 -274.6653125 174.55703125 -274.40234375 175.56640625 C-266.59910487 202.19764354 -248.15797154 221.80976621 -224.765625 235.609375 C-211.31949103 242.85927881 -195.80997109 246.69755978 -180.55001831 246.74241638 C-179.81408671 246.74594323 -179.07815512 246.74947007 -178.31992257 246.75310379 C-175.87066448 246.76372008 -173.42144539 246.76745941 -170.97216797 246.77124023 C-169.20899799 246.77755117 -167.44582959 246.78431756 -165.68266296 246.79150391 C-161.89263109 246.80613914 -158.10260522 246.81787808 -154.31255722 246.82745171 C-148.30991519 246.84295483 -142.30732507 246.86690537 -136.30471802 246.89234924 C-119.23768401 246.96341273 -102.17062033 247.02323753 -85.10351562 247.07446289 C-75.67204311 247.10284522 -66.24062235 247.13826901 -56.80920422 247.18111664 C-50.85258028 247.20775862 -44.89601481 247.22574375 -38.93934321 247.23715389 C-35.21845431 247.24633789 -31.49763591 247.26372666 -27.77678871 247.28333282 C-26.0632686 247.29074966 -24.34973033 247.2948858 -22.63619423 247.29532814 C1.25954288 247.30646875 22.63413218 251.70088218 40.23828125 268.9765625 C41.09164063 269.84152344 41.945 270.70648438 42.82421875 271.59765625 C43.43007813 272.20480469 44.0359375 272.81195313 44.66015625 273.4375 C47.85407552 276.89335444 49.88018805 280.5626119 52.07421875 284.72265625 C55.1278187 290.16251311 57.68030702 292.00475229 63.328125 294.3515625 C69.66181267 297.5134504 73.65699958 303.45006063 76.32421875 309.84765625 C79.14629485 318.85562237 79.01547786 327.79531899 75.01171875 336.38671875 C70.7493236 344.32262551 65.50285419 349.299349 57.015625 352.734375 C48.53347454 355.02881227 39.33263165 354.83832045 31.32421875 351.16015625 C23.37933085 346.55082591 17.49746379 340.13883176 14.44921875 331.40234375 C12.43009748 322.34153704 12.86766523 313.56354584 17.82421875 305.59765625 C18.42234375 304.85515625 19.02046875 304.11265625 19.63671875 303.34765625 C21.06143859 301.6137455 21.06143859 301.6137455 20.76171875 299.16015625 C18.30322804 292.44028164 12.86958184 288.9054468 6.82421875 285.59765625 C-3.56021385 281.18522066 -13.43518418 281.03816485 -24.484375 281.11523438 C-26.29456374 281.1130438 -28.10475104 281.10903991 -29.91493225 281.1033783 C-33.79006523 281.09486251 -37.66492013 281.09852758 -41.54003906 281.11180115 C-47.68824151 281.13229459 -53.83616942 281.12209116 -59.984375 281.10754395 C-74.15398625 281.07861444 -88.32351481 281.08919533 -102.49314117 281.10024261 C-115.46864251 281.10995582 -128.44399773 281.11098842 -141.4194746 281.08036184 C-146.52013474 281.06926792 -151.62051127 281.06642057 -156.72116089 281.08351135 C-201.69644089 281.23018763 -238.37472315 274.49915076 -272.17578125 242.59765625 C-272.92472656 241.91316406 -273.67367187 241.22867188 -274.4453125 240.5234375 C-296.36488645 219.75550491 -310.89732631 187.34060911 -312.33691406 157.22705078 C-312.72074146 125.26672545 -312.72074146 125.26672545 -309.17578125 112.59765625 C-308.95535156 111.79779297 -308.73492187 110.99792969 -308.5078125 110.17382812 C-301.91352865 87.02405385 -290.68415886 68.06059991 -274.17578125 50.59765625 C-273.4178125 49.77523437 -272.65984375 48.9528125 -271.87890625 48.10546875 C-248.10133789 23.16233332 -213.90253418 10.56608268 -179.89247131 9.49417496 C-172.01834363 9.36157937 -164.14422484 9.38294551 -156.26938629 9.41495705 C-151.7967933 9.43237495 -147.32435767 9.4288005 -142.85174561 9.42131042 C-130.14944497 9.40228072 -117.44736206 9.395677 -104.74511719 9.44311523 C-97.69550289 9.46927212 -90.64634622 9.47059892 -83.59672809 9.443968 C-79.87966925 9.43100657 -76.16360642 9.43092503 -72.44663239 9.46183205 C-68.31568569 9.49613586 -64.18668318 9.47645484 -60.05566406 9.45239258 C-58.2228891 9.48083 -58.2228891 9.48083 -56.35308838 9.50984192 C-50.36178686 9.56939854 -50.36178686 9.56939854 -45.14281464 7.05115318 C-43.65169571 5.30319231 -42.43852101 3.51154722 -41.17578125 1.59765625 C-38.54296875 -0.36328125 -38.54296875 -0.36328125 -36.05078125 -1.77734375 C-35.22320312 -2.25945313 -34.395625 -2.7415625 -33.54296875 -3.23828125 C-23.00023716 -8.42266081 -9.52616884 -6.1398467 0 0 Z " fill="#A8904F" transform="translate(344.17578125,16.40234375)"/>
<path d="M0 0 C7.39811265 5.36445613 11.73754362 11.54439387 14.31640625 20.21875 C15.47562626 30.18804212 14.29329543 38.71503199 8.37890625 47.09375 C7.80140625 47.691875 7.22390625 48.29 6.62890625 48.90625 C9.06648966 54.39081267 12.57633129 58.24455401 17.56640625 61.53125 C18.40042969 62.10101563 19.23445313 62.67078125 20.09375 63.2578125 C31.10806887 68.39377113 42.65182101 68.33766791 54.52612305 68.29101562 C56.29191944 68.29512982 58.05771312 68.30059567 59.82350159 68.30729675 C63.6020048 68.31895085 67.38036222 68.32153151 71.15888023 68.31694031 C77.15081985 68.31007875 83.14257094 68.32608833 89.13447571 68.34533691 C101.86177582 68.38306419 114.58905881 68.39596466 127.31640625 68.40625 C141.04433023 68.41735493 154.77216583 68.43293151 168.50002986 68.47696257 C174.43860361 68.49516786 180.37695828 68.49926567 186.31555307 68.49202728 C190.03232039 68.49048976 193.74898117 68.50138693 197.46571922 68.51540565 C199.16908869 68.51935919 200.87247926 68.51836907 202.57584 68.51163292 C239.93261642 68.37542823 274.49971736 81.84156012 301.25390625 108.09375 C327.84779739 135.02221926 340.85658303 170.08421847 340.88037109 207.6574707 C340.31088111 244.45032007 324.20519605 276.22196598 299.25390625 302.59375 C271.28633393 329.43466657 234.84670245 340.19587981 196.80151367 339.98461914 C195.46136607 339.98109272 194.12121689 339.97812895 192.78106689 339.97567749 C189.92145492 339.97005553 187.06186284 339.96207081 184.20226097 339.95265388 C179.675288 339.9393542 175.1483988 339.94123843 170.62141418 339.94688416 C169.47018225 339.94826428 169.47018225 339.94826428 168.2956931 339.94967228 C165.93606083 339.95264072 163.57642887 339.95580448 161.21679688 339.95898438 C151.48787854 339.97177441 141.75936574 339.97360424 132.03051758 339.93041992 C124.90581271 339.89890299 117.78171845 339.89562184 110.65699655 339.92517942 C106.89558081 339.93969776 103.13538904 339.93999919 99.37407494 339.90577888 C95.18499228 339.86797956 90.9984749 339.89251034 86.80932617 339.92211914 C85.57229446 339.90113663 84.33526276 339.88015411 83.06074524 339.85853577 C76.77255099 339.86755882 76.77255099 339.86755882 71.35943031 342.67931938 C69.6184524 344.67684859 68.14281465 346.73637703 66.62890625 348.90625 C58.29295742 355.18162721 49.78139126 356.00134951 39.62890625 354.90625 C30.82328731 353.63697159 24.84445262 347.78083058 19.1796875 341.23046875 C13.68432184 333.65135849 13.62580171 323.83478413 14.62890625 314.90625 C17.55374945 305.34212393 23.39827292 298.24442798 32.1953125 293.53125 C40.76143273 289.9402127 50.05172746 289.34068713 58.87890625 292.40625 C65.28851889 295.32827929 70.73226734 300.06129164 74.62890625 305.90625 C77.05349461 306.35982706 77.05349461 306.35982706 79.93156433 306.2804718 C81.61965965 306.29099327 81.61965965 306.29099327 83.34185791 306.30172729 C84.58280212 306.29408356 85.82374634 306.28643982 87.10229492 306.27856445 C88.40497818 306.28221512 89.70766144 306.28586578 91.04981995 306.28962708 C94.63333679 306.29905986 98.21658153 306.28958445 101.8000772 306.27629495 C105.55937093 306.26497807 109.31865128 306.26908894 113.07795715 306.27104187 C119.40577627 306.27192619 125.73348858 306.2608276 132.0612793 306.24243164 C139.34330441 306.2213806 146.62517168 306.21772792 153.90722102 306.2239936 C160.93379214 306.22972712 167.96030849 306.22398739 174.98687172 306.21282005 C177.96373842 306.2082143 180.94057116 306.20728273 183.91744041 306.2094059 C187.44445134 306.21131584 190.97130615 306.20298167 194.49828148 306.1873455 C196.38353876 306.18120104 198.26881988 306.18457025 200.15408325 306.18841553 C220.59785041 306.06377408 238.78432827 301.87593813 256.62890625 291.90625 C258.129375 291.0709375 258.129375 291.0709375 259.66015625 290.21875 C281.9344022 276.90540759 297.75302629 253.77640959 304.16796875 228.80810547 C310.41547188 201.84095653 305.43154999 173.76750051 291.62890625 149.90625 C283.51562202 137.33861365 272.51978543 125.62578811 259.62890625 117.90625 C258.02015625 116.92398438 258.02015625 116.92398438 256.37890625 115.921875 C242.31555615 107.70504273 226.19461474 102.74290802 209.86474609 102.76821899 C209.11389142 102.76539771 208.36303675 102.76257643 207.5894289 102.75966966 C205.08955651 102.75137971 202.58972873 102.74999023 200.08984375 102.74853516 C198.29051083 102.74386264 196.49117909 102.73871836 194.69184875 102.73313904 C190.82324332 102.72188475 186.95464548 102.71343758 183.08602905 102.70701981 C176.95681934 102.69630177 170.82766408 102.67604533 164.69848633 102.65390015 C147.27118436 102.59210843 129.84388564 102.53804227 112.41650391 102.50488281 C102.7864957 102.48647961 93.15657893 102.45747174 83.52663803 102.4168781 C78.43845093 102.39590196 73.3503786 102.38036424 68.262146 102.37807083 C63.46857168 102.37590763 58.67523621 102.35986968 53.88173485 102.33368111 C52.13358062 102.32654963 50.38539725 102.32435682 48.63723183 102.32778358 C25.03895929 102.36661358 4.78257218 96.94959673 -12.9453125 80.4375 C-27.37109375 65.38451087 -27.37109375 65.38451087 -27.37109375 57.90625 C-28.03109375 57.865 -28.69109375 57.82375 -29.37109375 57.78125 C-36.76657089 55.62423583 -42.73860736 49.44195291 -46.52734375 42.9140625 C-50.39175858 35.15762988 -51.50344429 26.57678587 -49.21484375 18.16015625 C-45.55992609 8.39678824 -39.23707476 1.46444955 -29.80859375 -3.03125 C-19.84896131 -6.17221193 -8.97154917 -5.17542429 0 0 Z " fill="#A99150" transform="translate(127.37109375,134.09375)"/>
<path d="M0 0 C4.26673367 3.25739883 8.01395538 6.52093308 11 11 C13.68934371 11.3075941 16.15105197 11.41731415 18.84432983 11.40113831 C19.66401044 11.40793498 20.48369106 11.41473164 21.32821047 11.42173427 C24.09051588 11.44081137 26.85238187 11.43826273 29.61474609 11.43579102 C31.58882726 11.44476203 33.56290315 11.45496875 35.53697205 11.46632385 C40.9109457 11.49289576 46.2847762 11.49986036 51.65880919 11.50177121 C56.13959484 11.50461451 60.62034688 11.51564485 65.10111964 11.5262875 C75.66996938 11.55074115 86.23874242 11.55803842 96.80761719 11.5559082 C107.72203244 11.55410548 118.63600303 11.58576344 129.55030572 11.63313919 C138.91001276 11.67232409 148.26957423 11.68846164 157.6293627 11.68654197 C163.22434384 11.68577574 168.8189301 11.69439878 174.4138298 11.72607613 C179.67529098 11.75505056 184.93597796 11.75540565 190.1974659 11.73352623 C192.13086765 11.73037994 194.06431701 11.73752946 195.9976368 11.7556076 C198.63324504 11.77866041 201.26615553 11.76491563 203.90170288 11.74171448 C204.67076788 11.75714517 205.43983289 11.77257586 206.23220289 11.78847414 C208.64140446 11.80665367 208.64140446 11.80665367 212 11 C214.4455959 8.17248605 214.4455959 8.17248605 216 5 C224.00884851 -1.90988997 232.20558647 -4.63491426 242.6875 -4.34375 C251.60589668 -3.41825601 259.24021647 0.0329256 265 7 C270.76131664 15.57907849 273.14820259 24.43919426 271.5859375 34.7265625 C269.35079219 43.42477859 264.56618501 50.72155358 257.1171875 55.78125 C248.81429429 60.56077524 239.83225199 61.25554401 230.44921875 59.53125 C224.09293455 57.68693956 217.95228819 54.12190282 214.39534378 48.43399525 C211.63483085 45.62893845 210.06042414 45.40138602 206.19670558 45.32842034 C205.03522529 45.34443023 205.03522529 45.34443023 203.85028076 45.36076355 C203.02198549 45.35240787 202.19369021 45.3440522 201.34029508 45.33544332 C198.56074726 45.31347036 195.78251522 45.32713322 193.00292969 45.34057617 C191.01220697 45.33212566 189.02149253 45.3214828 187.03079224 45.30880737 C181.62199593 45.28059995 176.21359536 45.2831435 170.80474758 45.29110122 C165.15389052 45.2942208 159.50316071 45.26920799 153.85235596 45.24714661 C143.14976122 45.20965376 132.44729356 45.19755551 121.74463964 45.1945222 C109.56092042 45.18983706 97.37732895 45.15693121 85.19366598 45.12162435 C60.12912614 45.04962401 35.06463489 45.01316255 10 45 C9.70287109 45.62326172 9.40574219 46.24652344 9.09960938 46.88867188 C5.89230413 53.04692582 -0.79397034 57.06589679 -7.15625 59.34375 C-17.37287162 61.70143191 -26.03935165 60.28443889 -35.0625 55.3125 C-43.38708859 48.75910047 -48.02890603 41.43894624 -49.4140625 30.828125 C-49.81980837 21.90171593 -47.78053307 14.11263157 -42.42578125 6.87109375 C-31.64895289 -4.75984222 -13.90710797 -8.43775795 0 0 Z " fill="#A99150" transform="translate(184,76)"/>
<path d="M0 0 C0.70560059 0.00161133 1.41120117 0.00322266 2.13818359 0.00488281 C7.98803515 0.14208329 12.26173205 1.30562425 17.1875 4.375 C18.280625 5.014375 19.37375 5.65375 20.5 6.3125 C23.26811305 8.43686583 25.219979 10.49939238 27.1875 13.375 C27.1875 14.035 27.1875 14.695 27.1875 15.375 C53.42150584 15.40790435 79.65523889 15.40097683 105.88921547 15.34653378 C118.06993896 15.32218557 130.25041351 15.3109083 142.43115234 15.33032227 C153.04700362 15.34720901 163.66250677 15.33965233 174.27831209 15.30265242 C179.90025288 15.28391397 185.52160479 15.27747776 191.14354324 15.30030632 C196.43467434 15.32140557 201.72472597 15.30983459 207.01576233 15.27315521 C208.95797628 15.26545875 210.90027995 15.26972046 212.84243393 15.28681374 C215.49533364 15.30837467 218.14455765 15.28691196 220.79727173 15.25474548 C221.95001349 15.2794939 221.95001349 15.2794939 223.12604296 15.30474228 C226.2538878 15.22859646 228.55914485 14.92824345 230.94572139 12.82695115 C232.55518334 10.98116088 232.55518334 10.98116088 233.91285837 9.06681925 C235.68534756 6.71421185 237.77026924 5.44245695 240.3125 4 C241.14007813 3.51789063 241.96765625 3.03578125 242.8203125 2.5390625 C250.01215909 -0.99752213 260.2572032 -0.77934312 267.95703125 1.0234375 C277.00061831 4.729566 283.3829033 11.47193565 287.1875 20.375 C290.46361792 29.46579841 289.65484137 37.5584696 286.1875 46.375 C281.4794194 54.69260906 274.68176453 60.19802726 265.875 63.6875 C256.72807391 65.3928591 248.47283206 64.8802236 240.1875 60.375 C231.28848793 53.57697585 231.28848793 53.57697585 229.1875 49.375 C203.1013941 49.18813482 177.01538847 49.04705255 150.92874813 48.96050262 C138.81628486 48.91924809 126.7042374 48.86300176 114.59204102 48.77148438 C104.03527235 48.6917575 93.47880481 48.64013672 82.92174345 48.62229204 C77.33144676 48.61186043 71.74201152 48.5873387 66.15199089 48.52915955 C60.88965458 48.47483485 55.628534 48.45811203 50.36594391 48.47013855 C48.43536076 48.46793866 46.50473673 48.45203735 44.57439613 48.4213562 C34.63327071 47.89704433 34.63327071 47.89704433 25.5885334 51.11598206 C23.70497917 53.16342796 23.70497917 53.16342796 22.42665958 55.3761673 C19.62679277 59.89250678 14.27986224 62.23826957 9.3125 63.6875 C0.10444068 65.55788705 -9.06699587 64.80002589 -17.23046875 59.93359375 C-24.62702443 54.59370179 -30.28607448 47.53355311 -31.8125 38.375 C-32.70752597 27.73258179 -31.41580225 19.41130632 -24.5 11.0625 C-17.38710311 3.53924367 -10.55893928 -0.02512239 0 0 Z " fill="#AB9250" transform="translate(75.8125,363.625)"/>
<path d="M0 0 C0.66 0 1.32 0 2 0 C2 1.32 2 2.64 2 4 C-1.98141092 5.32173096 -6.00873856 5.11867658 -10.14971924 5.08229065 C-10.97801451 5.07906152 -11.80630979 5.07583239 -12.65970492 5.07250541 C-15.43887351 5.06042868 -18.21794339 5.0410561 -20.99707031 5.02172852 C-22.98778061 5.0115859 -24.97849324 5.00189221 -26.96920776 4.99261475 C-32.37792137 4.966132 -37.78658082 4.93335278 -43.19525242 4.89946485 C-48.84603043 4.8651236 -54.49683747 4.83654287 -60.14764404 4.80735779 C-70.85024146 4.75120266 -81.55280255 4.68984767 -92.25536036 4.62663645 C-104.43899687 4.55493 -116.62266248 4.48900218 -128.80633402 4.42356598 C-153.87092712 4.28881901 -178.93547477 4.14679491 -204 4 C-204 3.34 -204 2.68 -204 2 C-202.95471414 1.99576806 -201.90942827 1.99153612 -200.83246708 1.98717594 C-175.43764234 1.88413566 -150.04284686 1.77540728 -124.64807224 1.66066074 C-112.36752349 1.60530365 -100.08697184 1.55181764 -87.80639648 1.50268555 C-77.1068388 1.4598741 -66.40730273 1.4136039 -55.70777839 1.36312145 C-50.03869325 1.33649595 -44.36961247 1.31164235 -38.7005024 1.29092598 C-33.37117586 1.27139673 -28.04189056 1.24726431 -22.71260071 1.21950912 C-20.75054609 1.21011895 -18.78848241 1.20245081 -16.82641411 1.19658089 C-14.15987021 1.18835297 -11.49342727 1.17408595 -8.82691956 1.15821838 C-8.03996989 1.15724028 -7.25302023 1.15626217 -6.44222361 1.15525442 C-2.92777963 1.4493123 -2.92777963 1.4493123 0 0 Z " fill="#6C5C39" transform="translate(306,377)"/>
<path d="M0 0 C0 1.65 0 3.3 0 5 C-0.88171875 4.90976563 -1.7634375 4.81953125 -2.671875 4.7265625 C-6.92834173 5.07627221 -8.22439612 6.43292506 -11.25 9.375 C-12.10078125 10.18710938 -12.9515625 10.99921875 -13.828125 11.8359375 C-15.21994955 13.22275549 -16.61067647 14.61067647 -18 16 C-20.69580786 16.19330391 -23.28848261 16.26044723 -25.98513794 16.24050903 C-27.23726824 16.24307231 -27.23726824 16.24307231 -28.51469409 16.24568737 C-31.32775293 16.24899656 -34.14057622 16.23795516 -36.95361328 16.22705078 C-38.96373489 16.22648698 -40.97385691 16.22680263 -42.98397827 16.22793579 C-48.45479553 16.2285115 -53.92552576 16.21672195 -59.39632273 16.20278788 C-65.1085202 16.1903168 -70.82071948 16.18911289 -76.53292847 16.18673706 C-87.35600079 16.18051161 -98.17903289 16.16408642 -109.00208747 16.14403808 C-121.32111998 16.12171216 -133.64015437 16.11069399 -145.95920205 16.10064721 C-171.30615703 16.07972109 -196.65307627 16.04452448 -222 16 C-221.67 15.34 -221.34 14.68 -221 14 C-219.45168047 14.00829614 -219.45168047 14.00829614 -217.87208176 14.01675987 C-192.77673587 14.14985174 -167.68143566 14.24850417 -142.58581161 14.31087303 C-130.44982118 14.34183448 -118.31406363 14.384059 -106.17822266 14.45263672 C-95.60280622 14.51236833 -85.0275584 14.55113247 -74.45197797 14.56453097 C-68.8502066 14.57236525 -63.24891771 14.59082545 -57.64730072 14.63438034 C-52.37772723 14.67502256 -47.1088362 14.68768594 -41.83912086 14.67864609 C-39.90246945 14.68030048 -37.96579587 14.69228515 -36.02927971 14.71523285 C-33.38925972 14.74498969 -30.75183251 14.73794823 -28.11175537 14.7215271 C-27.34132613 14.73900415 -26.57089689 14.7564812 -25.77712131 14.77448785 C-23.36429435 14.7991346 -23.36429435 14.7991346 -20 14 C-17.5623817 11.17308999 -17.5623817 11.17308999 -16 8 C-13.78125 6.171875 -13.78125 6.171875 -11.5 4.75 C-10.37078125 4.03070313 -10.37078125 4.03070313 -9.21875 3.296875 C-3.57831325 0 -3.57831325 0 0 0 Z " fill="#7E6F42" transform="translate(416,73)"/>
<path d="M0 0 C0.66 0.33 1.32 0.66 2 1 C-0.47995137 6.8769681 -5.76655262 10.53444382 -11.46484375 13.1171875 C-20.83459764 16.22563666 -29.9081708 15.87047821 -39 12 C-41.57439991 10.49404514 -43.68718873 8.91058322 -46 7 C-46 6.67 -46 6.34 -46 6 C-40.55176398 6.42731263 -38.15469054 7.59102314 -34 11 C-26.24551783 13.11485877 -17.85671881 11.99767858 -10 11 C-10 9.68 -10 8.36 -10 7 C-7.36 6.34 -4.72 5.68 -2 5 C-2 4.34 -2 3.68 -2 3 C-1.34 3 -0.68 3 0 3 C0 2.01 0 1.02 0 0 Z " fill="#7D6E43" transform="translate(100,413)"/>
<path d="M0 0 C1.59403661 2.39105492 2.72906235 4.46641493 3.8828125 7.0625 C7.7285675 15.55010027 11.46541731 23.43573298 17.2734375 30.7734375 C19.06447114 33.08314151 20.542455 35.46941573 22 38 C21.01 38 20.02 38 19 38 C19 37.34 19 36.68 19 36 C17.515 35.505 17.515 35.505 16 35 C16 34.34 16 33.68 16 33 C15.34 33 14.68 33 14 33 C10 26.375 10 26.375 10 23 C9.34 23 8.68 23 8 23 C8 22.34 8 21.68 8 21 C7.34 21 6.68 21 6 21 C4.38432287 16.76846466 2.80223743 12.52767462 1.3125 8.25 C1.06113281 7.53328125 0.80976562 6.8165625 0.55078125 6.078125 C0 4 0 4 0 0 Z " fill="#857449" transform="translate(69,193)"/>
<path d="M0 0 C0.66 0.33 1.32 0.66 2 1 C1.01 2.485 1.01 2.485 0 4 C-0.66 4 -1.32 4 -2 4 C-2 4.99 -2 5.98 -2 7 C-2.66 7 -3.32 7 -4 7 C-4 8.32 -4 9.64 -4 11 C-6.31 10.67 -8.62 10.34 -11 10 C-11.2475 10.61875 -11.495 11.2375 -11.75 11.875 C-13.20628639 14.35068687 -14.37812506 14.95125002 -17 16 C-15.36962739 10.02196711 -10.95211636 5.86701413 -5.83203125 2.62890625 C-3.6875 1.5 -3.6875 1.5 0 0 Z " fill="#96854B" transform="translate(65,365)"/>
<path d="M0 0 C2.140625 0.9453125 2.140625 0.9453125 4 2 C-4.62979181 7.23868121 -14.19911503 7.24387714 -23.8984375 5.1640625 C-24.92195312 4.77992188 -25.94546875 4.39578125 -27 4 C-27.33 3.01 -27.66 2.02 -28 1 C-27.03513672 1.19916016 -27.03513672 1.19916016 -26.05078125 1.40234375 C-18.71750143 2.83552397 -11.45446622 3.54965069 -4 4 C-4 3.34 -4 2.68 -4 2 C-2.25 0.875 -2.25 0.875 0 0 Z " fill="#85774A" transform="translate(187,483)"/>
<path d="M0 0 C0 1.65 0 3.3 0 5 C-0.88300781 4.90976563 -1.76601563 4.81953125 -2.67578125 4.7265625 C-6.92566947 5.07614202 -8.18339185 6.4221247 -11.1875 9.375 C-13.75378986 11.85850632 -16.02281819 14.01521213 -19 16 C-18.5802 11.10233339 -16.68608362 9.13709245 -13 6 C-4.20224719 0 -4.20224719 0 0 0 Z " fill="#928151" transform="translate(416,73)"/>
<path d="M0 0 C5.40489519 1.52012677 8.98492628 5.27385218 13 9 C12.67 9.99 12.34 10.98 12 12 C11.34 12 10.68 12 10 12 C9.67 12.99 9.34 13.98 9 15 C8.67 15 8.34 15 8 15 C8 13.02 8 11.04 8 9 C7.4225 8.814375 6.845 8.62875 6.25 8.4375 C2.89572157 6.29448878 1.82092004 3.51177437 0 0 Z " fill="#9A874C" transform="translate(345,366)"/>
<path d="M0 0 C0.66 0.33 1.32 0.66 2 1 C-1.47445255 9.93430657 -1.47445255 9.93430657 -5 13 C-5.33 13 -5.66 13 -6 13 C-6.103125 13.78375 -6.20625 14.5675 -6.3125 15.375 C-7 18 -7 18 -10 20 C-9.66075349 12.19733016 -5.72456703 5.27894206 0 0 Z " fill="#827146" transform="translate(88,137)"/>
<path d="M0 0 C-0.99 0 -1.98 0 -3 0 C-3.268125 0.598125 -3.53625 1.19625 -3.8125 1.8125 C-5.00987475 4.01819033 -6.04478984 5.43583187 -8 7 C-8.99 7 -9.98 7 -11 7 C-11.33 7.99 -11.66 8.98 -12 10 C-13.32 9.67 -14.64 9.34 -16 9 C-16 9.66 -16 10.32 -16 11 C-16.66 10.67 -17.32 10.34 -18 10 C-14.50411482 4.59726836 -6.83025616 -2.68783229 0 0 Z " fill="#867748" transform="translate(317,13)"/>
<path d="M0 0 C0.33 0 0.66 0 1 0 C0.64234286 8.76260002 -1.38045551 16.65400942 -4 25 C-5.0625 23.125 -5.0625 23.125 -6 21 C-5.67 20.34 -5.34 19.68 -5 19 C-4.93049459 17.45976004 -4.91547643 15.91665012 -4.9375 14.375 C-4.94652344 13.55773437 -4.95554687 12.74046875 -4.96484375 11.8984375 C-4.97644531 11.27195312 -4.98804688 10.64546875 -5 10 C-4.01 10 -3.02 10 -2 10 C-1.93941406 9.36191406 -1.87882812 8.72382813 -1.81640625 8.06640625 C-1.73261719 7.24011719 -1.64882813 6.41382813 -1.5625 5.5625 C-1.48128906 4.73878906 -1.40007812 3.91507812 -1.31640625 3.06640625 C-1 1 -1 1 0 0 Z " fill="#8A7A48" transform="translate(465,358)"/>
<path d="M0 0 C0.33 0 0.66 0 1 0 C2.125 7.75 2.125 7.75 1 10 C0.91332745 12.62627133 0.88439865 15.22562483 0.90234375 17.8515625 C0.9037587 18.62559418 0.90517365 19.39962585 0.90663147 20.19711304 C0.91223597 22.67311442 0.92478917 25.14902588 0.9375 27.625 C0.94251442 29.30208203 0.94707743 30.97916547 0.95117188 32.65625 C0.96220685 36.77086806 0.97947446 40.88541878 1 45 C0.67 45 0.34 45 0 45 C-0.77174358 40.21472996 -1.12832378 35.6264975 -1.1328125 30.78125 C-1.13376923 30.11967896 -1.13472595 29.45810791 -1.13571167 28.77648926 C-1.13638724 27.388264 -1.13457684 26.00003546 -1.13037109 24.61181641 C-1.12501389 22.50546062 -1.13033736 20.39931802 -1.13671875 18.29296875 C-1.13605786 16.93489537 -1.13477647 15.57682212 -1.1328125 14.21875 C-1.13168457 13.00123047 -1.13055664 11.78371094 -1.12939453 10.52929688 C-0.99840287 6.95643762 -0.56888327 3.52741526 0 0 Z " fill="#6D5F37" transform="translate(33,139)"/>
<path d="M0 0 C4.62 0 9.24 0 14 0 C14 0.99 14 1.98 14 3 C5.585 3.495 5.585 3.495 -3 4 C-3 3.34 -3 2.68 -3 2 C-2.01 2 -1.02 2 0 2 C0 1.34 0 0.68 0 0 Z " fill="#90804B" transform="translate(160,72)"/>
<path d="M0 0 C0.66 0 1.32 0 2 0 C2.12375 0.639375 2.2475 1.27875 2.375 1.9375 C2.58125 2.618125 2.7875 3.29875 3 4 C3.66 4.33 4.32 4.66 5 5 C0.97985339 6.56454159 -2.69925681 5.46223974 -6.75 4.5625 C-7.44738281 4.41490234 -8.14476562 4.26730469 -8.86328125 4.11523438 C-10.5772021 3.75131967 -12.28884581 3.37670932 -14 3 C-10.6773117 0.78487447 -9.71729219 0.79747477 -5.875 0.9375 C-4.25076856 0.99164105 -2.62500568 1.02038538 -1 1 C-0.67 0.67 -0.34 0.34 0 0 Z " fill="#8B7A47" transform="translate(359,234)"/>
<path d="M0 0 C-8.17298358 3.92303212 -17.60671156 4.48226496 -26.375 2 C-27.24125 1.67 -28.1075 1.34 -29 1 C-29 0.67 -29 0.34 -29 0 C-25.7 0 -22.4 0 -19 0 C-19 0.33 -19 0.66 -19 1 C-16.03 1.33 -13.06 1.66 -10 2 C-10 1.34 -10 0.68 -10 0 C-6.26432828 -0.76411467 -3.65188082 -1.07174763 0 0 Z " fill="#796941" transform="translate(182,133)"/>
<path d="M0 0 C4.50504038 4.50504038 4.22725472 11.67899181 4.265625 17.703125 C3.97615908 20.20615388 3.16952664 21.79218457 2 24 C1.9498877 23.40985107 1.89977539 22.81970215 1.84814453 22.21166992 C1.61594352 19.53609298 1.37062472 16.86187659 1.125 14.1875 C1.04636719 13.25873047 0.96773437 12.32996094 0.88671875 11.37304688 C0.80292969 10.48037109 0.71914062 9.58769531 0.6328125 8.66796875 C0.55949707 7.84578857 0.48618164 7.0236084 0.41064453 6.17651367 C0.09335737 3.71664613 0.09335737 3.71664613 -2 1 C-1.34 0.67 -0.68 0.34 0 0 Z " fill="#73653B" transform="translate(138,147)"/>
<path d="M0 0 C5.44823602 0.42731263 7.84530946 1.59102314 12 5 C15.18762109 5.79690838 15.18762109 5.79690838 18 6 C17.34 6.66 16.68 7.32 16 8 C9.47313501 8 5.01685321 5.0043817 0 1 C0 0.67 0 0.34 0 0 Z " fill="#867648" transform="translate(54,419)"/>
<path d="M0 0 C0 0.66 0 1.32 0 2 C-1.41152344 2.07347656 -1.41152344 2.07347656 -2.8515625 2.1484375 C-4.71941406 2.26058594 -4.71941406 2.26058594 -6.625 2.375 C-7.85476562 2.44460938 -9.08453125 2.51421875 -10.3515625 2.5859375 C-13.83653855 2.9814487 -16.73049601 3.76261849 -20 5 C-20.66 4.34 -21.32 3.68 -22 3 C-14.49783264 -0.0517291 -8.05364285 -0.33608711 0 0 Z " fill="#7C6E44" transform="translate(181,425)"/>
<path d="M0 0 C0.99 0.33 1.98 0.66 3 1 C-1.07242789 6.70139904 -5.89889207 9.65919915 -12 13 C-12.33 12.01 -12.66 11.02 -13 10 C-12.01 10 -11.02 10 -10 10 C-10 9.34 -10 8.68 -10 8 C-8.68 7.67 -7.36 7.34 -6 7 C-6 6.34 -6 5.68 -6 5 C-4.68 5 -3.36 5 -2 5 C-2 4.01 -2 3.02 -2 2 C-1.34 2 -0.68 2 0 2 C0 1.34 0 0.68 0 0 Z " fill="#7B6D43" transform="translate(357,413)"/>
<path d="M0 0 C0.66 1.32 1.32 2.64 2 4 C1.01 4.33 0.02 4.66 -1 5 C-1 7.31 -1 9.62 -1 12 C-3.31 13.32 -5.62 14.64 -8 16 C-6.57250019 12.20950293 -4.83763458 8.72877544 -2.875 5.1875 C-2.33617187 4.21167969 -1.79734375 3.23585938 -1.2421875 2.23046875 C-0.83226562 1.49441406 -0.42234375 0.75835937 0 0 Z " fill="#837440" transform="translate(425,381)"/>
<path d="M0 0 C0.99 0 1.98 0 3 0 C2.37954537 4.23322844 0.89476441 7.52290295 -1.0625 11.3125 C-1.61035156 12.38113281 -2.15820312 13.44976562 -2.72265625 14.55078125 C-3.14417969 15.35902344 -3.56570313 16.16726563 -4 17 C-4.66 16.67 -5.32 16.34 -6 16 C-6 15.34 -6 14.68 -6 14 C-5.34 14 -4.68 14 -4 14 C-4.061875 13.278125 -4.12375 12.55625 -4.1875 11.8125 C-3.96252189 8.4378284 -2.80571505 6.81691548 -1 4 C-0.30420546 1.80869466 -0.30420546 1.80869466 0 0 Z " fill="#807146" transform="translate(455,388)"/>
<path d="M0 0 C3.67229009 3.37453684 6.08948843 6.37455093 8 11 C8 11.99 8 12.98 8 14 C7.34 14 6.68 14 6 14 C3 8.25 3 8.25 3 6 C1.68 5.67 0.36 5.34 -1 5 C-0.67 3.35 -0.34 1.7 0 0 Z " fill="#837346" transform="translate(446,81)"/>
<path d="M0 0 C0.66 0.99 1.32 1.98 2 3 C0.88121617 4.17262904 -0.24523051 5.33795138 -1.375 6.5 C-2.00148438 7.1496875 -2.62796875 7.799375 -3.2734375 8.46875 C-5 10 -5 10 -7 10 C-7.33 10.66 -7.66 11.32 -8 12 C-8.66 11.34 -9.32 10.68 -10 10 C-6.7 6.7 -3.4 3.4 0 0 Z " fill="#91814F" transform="translate(76,61)"/>
<path d="M0 0 C2.02196167 2.02196167 2.67551358 3.25864486 3.6875 5.875 C3.95949219 6.55304688 4.23148437 7.23109375 4.51171875 7.9296875 C5.07336741 10.31107782 4.76694846 11.70430191 4 14 C2 12.1875 2 12.1875 0 10 C0 6.66666667 0 3.33333333 0 0 Z " fill="#817241" transform="translate(456,284)"/>
<path d="M0 0 C2.8125 2.3125 2.8125 2.3125 3.6875 4.5625 C3.749375 5.42875 3.749375 5.42875 3.8125 6.3125 C0.0214881 4.86299545 -3.5749638 3.16077434 -7.1875 1.3125 C-7.1875 0.6525 -7.1875 -0.0075 -7.1875 -0.6875 C-4.00548524 -2.1561222 -3.1874158 -1.68745542 0 0 Z " fill="#8D7B4A" transform="translate(385.1875,245.6875)"/>
<path d="M0 0 C2.06568201 3.09852301 3.60295419 6.19392874 5.1875 9.5625 C5.73792969 10.71878906 6.28835937 11.87507812 6.85546875 13.06640625 C7.23316406 14.03449219 7.61085938 15.00257813 8 16 C7.67 16.66 7.34 17.32 7 18 C6.34 18 5.68 18 5 18 C4.15875684 15.75267898 3.32685168 13.50261215 2.5 11.25 C2.26152344 10.61578125 2.02304688 9.9815625 1.77734375 9.328125 C0.55198242 5.96713393 0 3.63128413 0 0 Z " fill="#77663D" transform="translate(69,193)"/>
<path d="M0 0 C4.571279 0.54855348 8.67435795 1.41744803 13 3 C13 6 13 6 11 9 C10.67 7.68 10.34 6.36 10 5 C9.278125 4.9175 8.55625 4.835 7.8125 4.75 C4.44686746 3.85249799 2.58387184 2.2885722 0 0 Z " fill="#867647" transform="translate(90,187)"/>
<path d="M0 0 C-1.40071493 5.29158974 -4.85487245 7.77478044 -9 11 C-9.33 10.01 -9.66 9.02 -10 8 C-9.01 8 -8.02 8 -7 8 C-7 7.34 -7 6.68 -7 6 C-6.34 6 -5.68 6 -5 6 C-5.33 5.01 -5.66 4.02 -6 3 C-2.25 0 -2.25 0 0 0 Z " fill="#887949" transform="translate(201,473)"/>
<path d="M0 0 C1.35158203 0.43119141 1.35158203 0.43119141 2.73046875 0.87109375 C3.76107422 1.21333984 3.76107422 1.21333984 4.8125 1.5625 C4.8125 2.2225 4.8125 2.8825 4.8125 3.5625 C3.39547487 3.42019192 1.9788904 3.27349254 0.5625 3.125 C-0.62085938 3.00318359 -0.62085938 3.00318359 -1.828125 2.87890625 C-4.01114639 2.58615007 -6.0648182 2.14185581 -8.1875 1.5625 C-8.1875 0.9025 -8.1875 0.2425 -8.1875 -0.4375 C-4.63507118 -1.62164294 -3.48919438 -1.13285532 0 0 Z " fill="#847648" transform="translate(138.1875,291.4375)"/>
<path d="M0 0 C1.98 0 3.96 0 6 0 C3.50063756 2.49936244 1.35191992 3.03723753 -2 4.125 C-3.0725 4.47820312 -4.145 4.83140625 -5.25 5.1953125 C-8 6 -8 6 -10 6 C-9.67 5.01 -9.34 4.02 -9 3 C-4.545 2.505 -4.545 2.505 0 2 C0 1.34 0 0.68 0 0 Z " fill="#796940" transform="translate(378,463)"/>
<path d="M0 0 C0.66 0.33 1.32 0.66 2 1 C0.74280103 4.77159691 -0.7123309 5.83312718 -4 8 C-6.8125 8.25 -6.8125 8.25 -9 8 C-6.14723863 5.06799526 -3.34920216 2.35684596 0 0 Z " fill="#847245" transform="translate(397,417)"/>
<path d="M0 0 C0 0.66 0 1.32 0 2 C-0.62390625 2.07089844 -1.2478125 2.14179688 -1.890625 2.21484375 C-4.19229321 2.80004532 -4.19229321 2.80004532 -5.046875 5.06640625 C-5.27890625 5.89011719 -5.5109375 6.71382813 -5.75 7.5625 C-5.99234375 8.38878906 -6.2346875 9.21507812 -6.484375 10.06640625 C-6.65453125 10.70449219 -6.8246875 11.34257812 -7 12 C-9.0703125 8.25 -9.0703125 8.25 -8.4375 6 C-6.34087944 3.08296269 -3.77757188 0 0 0 Z " fill="#807244" transform="translate(316,369)"/>
<path d="M0 0 C0 0.99 0 1.98 0 3 C-3.13986128 6.13986128 -6.77634005 6.94408501 -11 8 C-8.21659292 4.18570141 -5.12174212 0 0 0 Z " fill="#867547" transform="translate(154,75)"/>
<path d="M0 0 C0.66 0 1.32 0 2 0 C0.60667426 3.36720387 -0.9789286 4.9859524 -4 7 C-4 6.34 -4 5.68 -4 5 C-4.99 5 -5.98 5 -7 5 C-6.67 3.68 -6.34 2.36 -6 1 C-3.03 1.495 -3.03 1.495 0 2 C0 1.34 0 0.68 0 0 Z " fill="#8C7746" transform="translate(426,433)"/>
<path d="M0 0 C0.99 0.33 1.98 0.66 3 1 C2.04532436 2.62715156 1.08613152 4.25165346 0.125 5.875 C-0.40867187 6.77992187 -0.94234375 7.68484375 -1.4921875 8.6171875 C-3 11 -3 11 -5 13 C-4.64766839 7.5388601 -4.64766839 7.5388601 -4 5 C-1.9375 3.5 -1.9375 3.5 0 3 C0 2.01 0 1.02 0 0 Z " fill="#7A6A44" transform="translate(79,105)"/>
<path d="M0 0 C1.0516399 3.15491969 0.98032423 4.03355588 0.1875 7.125 C0.01605469 7.82882813 -0.15539062 8.53265625 -0.33203125 9.2578125 C-1 11 -1 11 -3 12 C-3.75 9.375 -3.75 9.375 -4 6 C-2.0625 2.625 -2.0625 2.625 0 0 Z " fill="#897846" transform="translate(142,83)"/>
<path d="M0 0 C0.99 0 1.98 0 3 0 C2.71572583 1.58467728 2.42225182 3.1677057 2.125 4.75 C1.88136719 6.07257813 1.88136719 6.07257813 1.6328125 7.421875 C1.03203736 9.86947744 0.22002883 11.80599857 -1 14 C-1.08333357 9.1666528 -0.95261487 4.76307437 0 0 Z " fill="#79673E" transform="translate(67,128)"/>
<path d="M0 0 C3 0 3 0 5.6875 2.5 C6.450625 3.325 7.21375 4.15 8 5 C7.67 5.99 7.34 6.98 7 8 C3.28631113 6.76210371 2.22645819 5.14775123 0 2 C0 1.34 0 0.68 0 0 Z " fill="#847448" transform="translate(396,120)"/>
<path d="M0 0 C0.68707555 2.49064888 1 4.37886292 1 7 C-0.175625 7.4640625 -0.175625 7.4640625 -1.375 7.9375 C-3.92330128 8.92875038 -3.92330128 8.92875038 -6 10 C-4.6302836 6.00499382 -2.74277578 3.19990508 0 0 Z " fill="#817141" transform="translate(58,81)"/>
<path d="M0 0 C0 1.65 0 3.3 0 5 C-3.375 5.125 -3.375 5.125 -7 5 C-7.66 4.34 -8.32 3.68 -9 3 C-3.375 0 -3.375 0 0 0 Z " fill="#8B7D48" transform="translate(416,73)"/>
<path d="M0 0 C2.08304538 -0.05418326 4.16649768 -0.09287551 6.25 -0.125 C7.99023438 -0.15980469 7.99023438 -0.15980469 9.765625 -0.1953125 C12.82786046 -0.0103949 14.44202751 0.39176977 17 2 C12.91721966 3.08318662 9.82121165 2.83473185 5.6875 2.0625 C4.61886719 1.86785156 3.55023438 1.67320313 2.44921875 1.47265625 C1.64097656 1.31667969 0.83273437 1.16070312 0 1 C0 0.67 0 0.34 0 0 Z " fill="#77693E" transform="translate(417,72)"/>
<path d="M0 0 C4.22271781 2.53363068 6.78310162 4.56620325 9 9 C8.01 9.66 7.02 10.32 6 11 C5.01 8.69 4.02 6.38 3 4 C2.34 4 1.68 4 1 4 C0.67 2.68 0.34 1.36 0 0 Z " fill="#7F7046" transform="translate(342,16)"/>
<path d="M0 0 C2.31 0.33 4.62 0.66 7 1 C7 1.66 7 2.32 7 3 C8.65 3.33 10.3 3.66 12 4 C11.67 4.66 11.34 5.32 11 6 C6.48986609 5.46939601 3.61621781 3.69113883 0 1 C0 0.67 0 0.34 0 0 Z " fill="#7E6F43" transform="translate(312,420)"/>
<path d="M0 0 C-0.99 1.485 -0.99 1.485 -2 3 C-2.66 3 -3.32 3 -4 3 C-4.33 3.66 -4.66 4.32 -5 5 C-6.98 5 -8.96 5 -11 5 C-8.10998474 1.78887193 -4.47884754 -2.23942377 0 0 Z " fill="#7F6F44" transform="translate(67,366)"/>
<path d="M0 0 C1.98 0 3.96 0 6 0 C6.28875 0.598125 6.5775 1.19625 6.875 1.8125 C8.04742026 4.19327792 8.04742026 4.19327792 10 7 C9.34 7.66 8.68 8.32 8 9 C7.4225 8.2575 6.845 7.515 6.25 6.75 C4.27746474 4.33912357 2.23955718 2.15957299 0 0 Z " fill="#867546" transform="translate(356,304)"/>
<path d="M0 0 C1.32 0 2.64 0 4 0 C3 4 3 4 2 8 C1.01 8 0.02 8 -1 8 C-1.125 2.25 -1.125 2.25 0 0 Z " fill="#97854E" transform="translate(132,178)"/>
<path d="M0 0 C1 3 1 3 0.328125 4.7890625 C-0.02765625 5.39492188 -0.3834375 6.00078125 -0.75 6.625 C-1.09546875 7.23601562 -1.4409375 7.84703125 -1.796875 8.4765625 C-3 10 -3 10 -6 11 C-4.74194623 6.49197399 -3.09592835 3.5087188 0 0 Z " fill="#7C6F45" transform="translate(150,435)"/>
<path d="M0 0 C4 1 4 1 5.484375 2.84765625 C5.90203125 3.57855469 6.3196875 4.30945313 6.75 5.0625 C7.39195312 6.16271484 7.39195312 6.16271484 8.046875 7.28515625 C8.36140625 7.85105469 8.6759375 8.41695313 9 9 C8.34 9.66 7.68 10.32 7 11 C4.69 7.37 2.38 3.74 0 0 Z " fill="#796A42" transform="translate(413,275)"/>
<path d="M0 0 C1.98 0.66 3.96 1.32 6 2 C6 2.66 6 3.32 6 4 C6.66 4 7.32 4 8 4 C8.33 5.65 8.66 7.3 9 9 C7.87105124 8.06725891 6.74699124 7.12859878 5.625 6.1875 C4.99851562 5.66542969 4.37203125 5.14335937 3.7265625 4.60546875 C2 3 2 3 0 0 Z " fill="#695C37" transform="translate(398,259)"/>
<path d="M0 0 C1.65 0 3.3 0 5 0 C5 0.66 5 1.32 5 2 C5.66 2 6.32 2 7 2 C8.625 4 8.625 4 10 6 C9.01 6.495 9.01 6.495 8 7 C6.66382648 6.02471263 5.3311249 5.04466681 4 4.0625 C3.2575 3.51722656 2.515 2.97195312 1.75 2.41015625 C1.1725 1.94480469 0.595 1.47945312 0 1 C0 0.67 0 0.34 0 0 Z " fill="#7F6E43" transform="translate(389,252)"/>
<path d="M0 0 C0.66 0.33 1.32 0.66 2 1 C1.67 1.66 1.34 2.32 1 3 C1.66 3.33 2.32 3.66 3 4 C1.71086513 4.67154933 0.41859796 5.33708859 -0.875 6 C-1.59429687 6.37125 -2.31359375 6.7425 -3.0546875 7.125 C-5 8 -5 8 -7 8 C-7 7.34 -7 6.68 -7 6 C-4 4 -4 4 -1 4 C-0.67 2.68 -0.34 1.36 0 0 Z " fill="#807044" transform="translate(396,453)"/>
<path d="M0 0 C-1.65 1.98 -3.3 3.96 -5 6 C-6.0625 4.125 -6.0625 4.125 -7 2 C-5.26578631 -1.46842738 -3.40984787 -1.13661596 0 0 Z " fill="#817144" transform="translate(435,427)"/>
<path d="M0 0 C4.43090471 1.20842856 6.98112756 2.51668565 10 6 C9.01 6.495 9.01 6.495 8 7 C8 6.34 8 5.68 8 5 C7.236875 4.855625 6.47375 4.71125 5.6875 4.5625 C3 4 3 4 0 3 C0 2.01 0 1.02 0 0 Z " fill="#7D6E44" transform="translate(366,273)"/>
<path d="M0 0 C0.928125 0.20625 1.85625 0.4125 2.8125 0.625 C0.19051226 2.77877564 -1.83154172 4.02572174 -5.1875 4.625 C-5.5175 3.635 -5.8475 2.645 -6.1875 1.625 C-3.1875 -0.375 -3.1875 -0.375 0 0 Z " fill="#867946" transform="translate(438.1875,130.375)"/>
<path d="M0 0 C0.33 0.99 0.66 1.98 1 3 C-2.07322544 3.91058531 -4.80097361 4.08886184 -8 4 C-8 3.34 -8 2.68 -8 2 C-5.09399739 0.74335022 -3.20395416 0 0 0 Z " fill="#8B7B49" transform="translate(126,33)"/>
<path d="M0 0 C3.63 0.66 7.26 1.32 11 2 C7.1496895 4.56687367 5.41430237 3.83288724 1 3 C0.67 2.01 0.34 1.02 0 0 Z " fill="#8D7D4C" transform="translate(159,484)"/>
<path d="M0 0 C3.93673644 1.31224548 6.22719294 2.91910327 9 6 C6.1875 5.8125 6.1875 5.8125 3 5 C1.125 2.4375 1.125 2.4375 0 0 Z " fill="#776741" transform="translate(345,366)"/>
<path d="M0 0 C2.475 0.495 2.475 0.495 5 1 C5 1.66 5 2.32 5 3 C5.99 3.33 6.98 3.66 8 4 C8 4.66 8 5.32 8 6 C5.0280615 4.87548273 2.66559313 3.77706209 0 2 C0 1.34 0 0.68 0 0 Z " fill="#817246" transform="translate(90,272)"/>
<path d="M0 0 C3.7952131 1.49097658 5.61042731 3.75700849 8 7 C7.01 7.33 6.02 7.66 5 8 C0 2.25 0 2.25 0 0 Z " fill="#8C7D4E" transform="translate(425,241)"/>
<path d="M0 0 C-3.19990508 2.74277578 -6.00499382 4.6302836 -10 6 C-10 5.01 -10 4.02 -10 3 C-9.01 3 -8.02 3 -7 3 C-7 2.34 -7 1.68 -7 1 C-4.53721199 -0.231394 -2.7204945 -0.07159196 0 0 Z " fill="#7C6D44" transform="translate(121,70)"/>
<path d="M0 0 C3.93673644 1.31224548 6.22719294 2.91910327 9 6 C6.36 5.34 3.72 4.68 1 4 C0.67 2.68 0.34 1.36 0 0 Z " fill="#78683E" transform="translate(403,223)"/>
<path d="M0 0 C-1.38877354 3.35620271 -2.91677965 5.07298728 -6 7 C-6.66 7 -7.32 7 -8 7 C-8 5 -8 5 -5.6875 2.375 C-3 0 -3 0 0 0 Z " fill="#7F6F46" transform="translate(190,125)"/>
<path d="M0 0 C1.32 0.33 2.64 0.66 4 1 C0.535 3.97 0.535 3.97 -3 7 C-3.33 6.01 -3.66 5.02 -4 4 C-2.25 1.9375 -2.25 1.9375 0 0 Z " fill="#78693E" transform="translate(93,87)"/>
<path d="M0 0 C0.33 1.32 0.66 2.64 1 4 C-0.65 5.32 -2.3 6.64 -4 8 C-4.33 7.01 -4.66 6.02 -5 5 C-3.35 3.35 -1.7 1.7 0 0 Z " fill="#8C7D4A" transform="translate(404,411)"/>
<path d="M0 0 C2.31 1.98 4.62 3.96 7 6 C4 7 4 7 1 6 C0.67 4.02 0.34 2.04 0 0 Z " fill="#796C40" transform="translate(418,233)"/>
<path d="M0 0 C0.99 0 1.98 0 3 0 C3.28875 0.598125 3.5775 1.19625 3.875 1.8125 C5.04742026 4.19327792 5.04742026 4.19327792 7 7 C6.01 7 5.02 7 4 7 C0 2.65714286 0 2.65714286 0 0 Z " fill="#837348" transform="translate(82,177)"/>
<path d="M0 0 C0.86625 0.556875 0.86625 0.556875 1.75 1.125 C-4 4.125 -4 4.125 -6.25 4.125 C-6.25 3.135 -6.25 2.145 -6.25 1.125 C-2.80384615 -1.09038462 -2.80384615 -1.09038462 0 0 Z " fill="#7C6E45" transform="translate(189.25,483.875)"/>
<path d="M0 0 C0.66 0.33 1.32 0.66 2 1 C0.35 2.65 -1.3 4.3 -3 6 C-3.99 5.67 -4.98 5.34 -6 5 C-4.02 3.35 -2.04 1.7 0 0 Z " fill="#7C6B42" transform="translate(157,429)"/>
<path d="M0 0 C0.33 0 0.66 0 1 0 C0.67 3.63 0.34 7.26 0 11 C-2 8 -2 8 -1.6875 4.375 C-1 1 -1 1 0 0 Z " fill="#7D6C42" transform="translate(465,358)"/>
<path d="M0 0 C2.64 0.33 5.28 0.66 8 1 C7.67 1.99 7.34 2.98 7 4 C4.69 3.34 2.38 2.68 0 2 C0 1.34 0 0.68 0 0 Z " fill="#938353" transform="translate(348,299)"/>
<path d="M0 0 C3.77545388 1.09068668 6.47043472 1.9083091 9 5 C8.01 5.33 7.02 5.66 6 6 C6 5.34 6 4.68 6 4 C4.35 3.67 2.7 3.34 1 3 C0.67 2.01 0.34 1.02 0 0 Z " fill="#7A6C42" transform="translate(394,218)"/>
<path d="M0 0 C2.64 0.33 5.28 0.66 8 1 C8 2.32 8 3.64 8 5 C4.62496331 3.8141763 2.35277269 2.72426311 0 0 Z " fill="#7B6C41" transform="translate(404,129)"/>
<path d="M0 0 C0.99 0 1.98 0 3 0 C3.66 2.31 4.32 4.62 5 7 C4.34 7.66 3.68 8.32 3 9 C2.01 6.03 1.02 3.06 0 0 Z " fill="#817143" transform="translate(136,112)"/>
<path d="M0 0 C0.99 0.33 1.98 0.66 3 1 C0.03 4.96 0.03 4.96 -3 9 C-3.33 7.68 -3.66 6.36 -4 5 C-2.68 4.34 -1.36 3.68 0 3 C0 2.01 0 1.02 0 0 Z " fill="#746441" transform="translate(87,94)"/>
<path d="M0 0 C-2.96687001 1.64826111 -5.65626525 2.44271087 -9 3 C-9 2.01 -9 1.02 -9 0 C-5.67465243 -1.10844919 -3.37817425 -0.84454356 0 0 Z " fill="#7F7247" transform="translate(146,61)"/>
<path d="M0 0 C2.0625 0.4375 2.0625 0.4375 4 1 C2.25 4.875 2.25 4.875 0 6 C-0.38218767 4.34385343 -0.71395102 2.67542976 -1 1 C-0.67 0.67 -0.34 0.34 0 0 Z " fill="#8D7B42" transform="translate(435,420)"/>
<path d="M0 0 C0.99 0.33 1.98 0.66 3 1 C4.1875 3.5625 4.1875 3.5625 5 6 C4.34 6.66 3.68 7.32 3 8 C0 3.375 0 3.375 0 0 Z " fill="#7B6D45" transform="translate(46,406)"/>
<path d="M0 0 C0.66 0.33 1.32 0.66 2 1 C1.67 1.99 1.34 2.98 1 4 C-1.64 4.33 -4.28 4.66 -7 5 C-4.702779 3.25728062 -2.40133271 1.60088848 0 0 Z " fill="#7A6C44" transform="translate(106,40)"/>
<path d="M0 0 C0.99 0 1.98 0 3 0 C1.75453595 3.73639216 0.36595047 4.18756513 -3 6 C-3 4.68 -3 3.36 -3 2 C-2.01 2 -1.02 2 0 2 C0 1.34 0 0.68 0 0 Z " fill="#7E6F47" transform="translate(415,442)"/>
<path d="M0 0 C0.66 0.33 1.32 0.66 2 1 C1.67 2.65 1.34 4.3 1 6 C-0.65 6 -2.3 6 -4 6 C-3.67 5.01 -3.34 4.02 -3 3 C-2.01 3 -1.02 3 0 3 C0 2.01 0 1.02 0 0 Z " fill="#968343" transform="translate(101,376)"/>
<path d="M0 0 C0.99 0 1.98 0 3 0 C1.25 5.75 1.25 5.75 -1 8 C-1.125 2.25 -1.125 2.25 0 0 Z " fill="#807340" transform="translate(418,347)"/>
<path d="M0 0 C2.50037734 2.17424117 3.43628586 3.73045798 4 7 C3.01 7 2.02 7 1 7 C0.67 4.69 0.34 2.38 0 0 Z " fill="#847349" transform="translate(395,300)"/>
<path d="M0 0 C2.97 0 5.94 0 9 0 C9 0.99 9 1.98 9 3 C4.545 2.01 4.545 2.01 0 1 C0 0.67 0 0.34 0 0 Z " fill="#7C6940" transform="translate(142,231)"/>
<path d="M0 0 C2.64 1.65 5.28 3.3 8 5 C7.01 5.66 6.02 6.32 5 7 C3.29115995 5.37660195 1.62553283 3.70680947 0 2 C0 1.34 0 0.68 0 0 Z " fill="#766A42" transform="translate(138,191)"/>
<path d="M0 0 C0.99 0.33 1.98 0.66 3 1 C3 2.32 3 3.64 3 5 C1.35 5 -0.3 5 -2 5 C-2.33 4.01 -2.66 3.02 -3 2 C-2.01 2 -1.02 2 0 2 C0 1.34 0 0.68 0 0 Z " fill="#9A8443" transform="translate(118,131)"/>
<path d="M0 0 C0.66 0 1.32 0 2 0 C0.73058503 3.91402949 -0.51167694 5.79072873 -4 8 C-4 7.01 -4 6.02 -4 5 C-3.34 5 -2.68 5 -2 5 C-1.34 3.35 -0.68 1.7 0 0 Z " fill="#70613D" transform="translate(448,121)"/>
<path d="M0 0 C0.99 0.66 1.98 1.32 3 2 C1.71937515 3.7074998 0.38232443 5.37373596 -1 7 C-1.66 7 -2.32 7 -3 7 C-1.125 1.125 -1.125 1.125 0 0 Z " fill="#806D41" transform="translate(50,93)"/>
<path d="M0 0 C0.86625 0.3403125 0.86625 0.3403125 1.75 0.6875 C0 2.25 0 2.25 -2.25 3.6875 C-4.5 3.375 -4.5 3.375 -6.25 2.6875 C-2.80384615 -0.38942308 -2.80384615 -0.38942308 0 0 Z " fill="#887847" transform="translate(93.25,49.3125)"/>
</svg>
